<svg width="104" height="24" viewBox="0 0 104 24" fill="none" xmlns="http://www.w3.org/2000/svg">
<path d="M13.3821 5.15534L14.79 7.9943C14.9819 8.3895 15.4939 8.76856 15.9258 8.84115L18.4775 9.2686C20.1094 9.54282 20.4933 10.7365 19.3175 11.914L17.3337 13.9142C16.9977 14.2529 16.8137 14.9062 16.9177 15.374L17.4857 17.85C17.9336 19.8098 16.9017 20.568 15.1819 19.5437L12.7902 18.1162C12.3582 17.8581 11.6463 17.8581 11.2063 18.1162L8.81461 19.5437C7.1028 20.568 6.06292 19.8018 6.51087 17.85L7.07881 15.374C7.18279 14.9062 6.99881 14.2529 6.66285 13.9142L4.67907 11.914C3.5112 10.7365 3.88716 9.54282 5.51898 9.2686L8.0707 8.84115C8.49465 8.76856 9.00659 8.3895 9.19857 7.9943L10.6064 5.15534C11.3743 3.61489 12.6222 3.61489 13.3821 5.15534Z" fill="#FD8368"/>
<path d="M33.3821 5.15534L34.79 7.9943C34.9819 8.3895 35.4939 8.76856 35.9258 8.84115L38.4775 9.2686C40.1094 9.54282 40.4933 10.7365 39.3175 11.914L37.3337 13.9142C36.9977 14.2529 36.8137 14.9062 36.9177 15.374L37.4857 17.85C37.9336 19.8098 36.9017 20.568 35.1819 19.5437L32.7902 18.1162C32.3582 17.8581 31.6463 17.8581 31.2063 18.1162L28.8146 19.5437C27.1028 20.568 26.0629 19.8018 26.5109 17.85L27.0788 15.374C27.1828 14.9062 26.9988 14.2529 26.6629 13.9142L24.6791 11.914C23.5112 10.7365 23.8872 9.54282 25.519 9.2686L28.0707 8.84115C28.4946 8.76856 29.0066 8.3895 29.1986 7.9943L30.6064 5.15534C31.3743 3.61489 32.6222 3.61489 33.3821 5.15534Z" fill="#FD8368"/>
<path d="M53.3821 5.15534L54.79 7.9943C54.9819 8.3895 55.4939 8.76856 55.9258 8.84115L58.4775 9.2686C60.1094 9.54282 60.4933 10.7365 59.3175 11.914L57.3337 13.9142C56.9977 14.2529 56.8137 14.9062 56.9177 15.374L57.4857 17.85C57.9336 19.8098 56.9017 20.568 55.1819 19.5437L52.7902 18.1162C52.3582 17.8581 51.6463 17.8581 51.2063 18.1162L48.8146 19.5437C47.1028 20.568 46.0629 19.8018 46.5109 17.85L47.0788 15.374C47.1828 14.9062 46.9988 14.2529 46.6629 13.9142L44.6791 11.914C43.5112 10.7365 43.8872 9.54282 45.519 9.2686L48.0707 8.84115C48.4946 8.76856 49.0066 8.3895 49.1986 7.9943L50.6064 5.15534C51.3743 3.61489 52.6222 3.61489 53.3821 5.15534Z" fill="#FD8368"/>
<path d="M73.3821 5.15534L74.79 7.9943C74.9819 8.3895 75.4939 8.76856 75.9258 8.84115L78.4775 9.2686C80.1094 9.54282 80.4933 10.7365 79.3175 11.914L77.3337 13.9142C76.9977 14.2529 76.8137 14.9062 76.9177 15.374L77.4857 17.85C77.9336 19.8098 76.9017 20.568 75.1819 19.5437L72.7902 18.1162C72.3582 17.8581 71.6463 17.8581 71.2063 18.1162L68.8146 19.5437C67.1028 20.568 66.0629 19.8018 66.5109 17.85L67.0788 15.374C67.1828 14.9062 66.9988 14.2529 66.6629 13.9142L64.6791 11.914C63.5112 10.7365 63.8872 9.54282 65.519 9.2686L68.0707 8.84115C68.4946 8.76856 69.0066 8.3895 69.1986 7.9943L70.6064 5.15534C71.3743 3.61489 72.6222 3.61489 73.3821 5.15534Z" fill="#FD8368"/>
<path d="M93.3821 5.15534L94.79 7.9943C94.9819 8.3895 95.4939 8.76856 95.9258 8.84115L98.4775 9.2686C100.109 9.54282 100.493 10.7365 99.3175 11.914L97.3337 13.9142C96.9977 14.2529 96.8137 14.9062 96.9177 15.374L97.4857 17.85C97.9336 19.8098 96.9017 20.568 95.1819 19.5437L92.7902 18.1162C92.3582 17.8581 91.6463 17.8581 91.2063 18.1162L88.8146 19.5437C87.1028 20.568 86.0629 19.8018 86.5109 17.85L87.0788 15.374C87.1828 14.9062 86.9988 14.2529 86.6629 13.9142L84.6791 11.914C83.5112 10.7365 83.8872 9.54282 85.519 9.2686L88.0707 8.84115C88.4946 8.76856 89.0066 8.3895 89.1986 7.9943L90.6064 5.15534C91.3743 3.61489 92.6222 3.61489 93.3821 5.15534Z" fill="url(#paint0_linear_29_77)"/>
<defs>
<linearGradient id="paint0_linear_29_77" x1="83.993" y1="12.0652" x2="98.3914" y2="12.0652" gradientUnits="userSpaceOnUse">
<stop offset="0.577169" stop-color="#FD8368"/>
<stop offset="0.876155" stop-color="#F4B741" stop-opacity="0"/>
</linearGradient>
</defs>
</svg>
